<svg xmlns="http://www.w3.org/2000/svg" viewBox="0 0 126.56 44.94"><defs><style>.cls-1{fill:#d40700}</style></defs><g id="Layer_2" data-name="Layer 2"><g id="Footer"><path class="cls-1" d="M116.88 16.61v27.45h9.68V16.61a12.06 12.06 0 0 1-4.84 1 12 12 0 0 1-4.84-1M126.55 5.63a4.84 4.84 0 1 1-4.83-4.84 4.83 4.83 0 0 1 4.83 4.84M0 22.36v21.7h9.6v-21.7c0-5.31 4.08-8.59 10.19-7.5v-9C7.35 4.3 0 11.73 0 22.36M39.22 5.61C28.67 5.61 20 14.5 20 25.35a19.42 19.42 0 0 0 19.22 19.59c9.32 0 15.94-5.17 18.12-12.82H47.08a8.69 8.69 0 0 1-7.93 4.37 9.54 9.54 0 0 1-9.39-7.43h28.31c1.38-14.85-7.79-23.45-18.85-23.45M29.91 21.2c1.38-4.37 4.87-7.14 9.24-7.14a9.41 9.41 0 0 1 9.39 7.14zM79.48 5.61c-11.35 0-19.28 8.89-19.28 19.74s8.07 19.51 18 19.51a15.07 15.07 0 0 0 11.42-4.73v3.93h9.1V25.35c0-10.85-7.93-19.74-19.21-19.74m0 30.37c-5.31 0-9.6-4.59-9.6-10.56 0-6.19 4.29-10.78 9.6-10.78s9.6 4.81 9.6 10.78S84.79 36 79.48 36M102.95 0h9.68v44.06h-9.68z"/></g></g></svg>
